<?xml version="1.0" encoding="utf-8"?>
<!-- Generator: Adobe Illustrator 25.0.0, SVG Export Plug-In . SVG Version: 6.00 Build 0)  -->
<svg version="1.1" xmlns="http://www.w3.org/2000/svg" xmlns:xlink="http://www.w3.org/1999/xlink" x="0px" y="0px"
	 viewBox="0 0 135 135" style="enable-background:new 0 0 135 135;" xml:space="preserve">
<style type="text/css">
	.st0{fill:#FFFFFF;}
	.st1{fill:#010201;}
	.st2{fill-rule:evenodd;clip-rule:evenodd;fill:#010201;}
	.st3{fill-rule:evenodd;clip-rule:evenodd;fill:#FFFFFF;}
	.st4{fill-rule:evenodd;clip-rule:evenodd;fill:#353535;}
	.st5{fill-rule:evenodd;clip-rule:evenodd;fill:#E2E3E3;}
	.st6{fill-rule:evenodd;clip-rule:evenodd;fill:#A29896;}
	.st7{fill-rule:evenodd;clip-rule:evenodd;fill:#BFC2C3;}
	.st8{fill-rule:evenodd;clip-rule:evenodd;fill:#D3D5D6;}
	.st9{fill-rule:evenodd;clip-rule:evenodd;fill:#D7D7D7;}
	.st10{fill-rule:evenodd;clip-rule:evenodd;fill:#E6E6E6;}
	.st11{clip-path:url(#SVGID_4_);fill-rule:evenodd;clip-rule:evenodd;fill:#FFFFFF;}
	.st12{clip-path:url(#SVGID_4_);}
	.st13{fill:#FEFEFE;}
	.st14{clip-path:url(#SVGID_8_);fill-rule:evenodd;clip-rule:evenodd;fill:#010201;}
	.st15{clip-path:url(#SVGID_8_);}
</style>
<g id="Background">
</g>
<g id="Graphic_Elements">
	<g>
		<defs>
			<circle id="SVGID_3_" cx="67.5" cy="67.5" r="67.5"/>
		</defs>
		<clipPath id="SVGID_2_">
			<use xlink:href="#SVGID_3_"  style="overflow:visible;"/>
		</clipPath>
		
			<rect x="-37.49" y="-52.77" style="clip-path:url(#SVGID_2_);fill-rule:evenodd;clip-rule:evenodd;fill:#FFFFFF;" width="291.04" height="275.85"/>
		<g style="clip-path:url(#SVGID_2_);">
			<path class="st1" d="M49.67,148c1.82-0.53,2.47-1.75,2.42-3.63c-0.1-3.64-0.03-30.42-0.03-34.21c-1.71,0.1-3.37,0.19-5.04,0.3
				c-3.09,0.21-6.14-0.02-9.07-1.11c-3.2-1.19-5.53-3.38-7.12-6.38c-0.95-1.79-1.83-3.63-2.84-5.39c-1.09-1.89-2.69-3.33-4.49-4.56
				c-0.75-0.51-1.48-1.11-2.09-1.78c-0.78-0.86-0.51-1.56,0.64-1.79c2.59-0.53,5.01,0.06,7.09,1.59c1.37,1.01,2.59,2.28,3.67,3.6
				c1.68,2.04,3.06,4.3,5.31,5.86c3.5,2.42,7.25,2.66,11.21,1.54c0.44-0.13,0.86-0.33,1.31-0.44c1.13-0.27,1.75-0.95,1.99-2.11
				c0.53-2.57,1.73-4.82,3.55-6.89c-2.13-0.41-4.12-0.77-6.1-1.19c-4.24-0.89-8.27-2.31-11.86-4.8c-4.8-3.33-7.9-7.91-9.45-13.5
				c-1.47-5.3-2.05-10.7-1.21-16.19c0.64-4.19,2.18-7.99,4.85-11.28c0.93-1.14,1.17-2.21,0.78-3.7c-1.23-4.67-0.72-9.29,0.87-13.82
				c0.35-0.99,1.01-1.34,2.05-1.23c4.38,0.44,8.29,2.18,12.03,4.33c4.78,2.75,3.43,2.29,8.27,1.38c8.68-1.64,17.33-1.45,25.94,0.54
				c1.19,0.27,2.24,0.1,3.32-0.46c3.2-1.65,6.39-3.34,9.68-4.77c1.4-0.61,3.05-0.65,4.6-0.87c1.19-0.17,1.92,0.39,2.32,1.56
				c1.54,4.47,1.92,9,0.69,13.59c-0.3,1.14-0.06,2.1,0.51,3.07c1.15,1.95,2.48,3.82,3.39,5.88c2.21,5,2.69,10.29,1.98,15.69
				c-0.56,4.23-1.86,8.22-3.84,12c-2.65,5.08-6.8,8.55-12.1,10.43c-3.77,1.34-7.76,2.06-11.65,3.06c-0.36,0.09-0.73,0.16-0.92,0.2
				c0.93,1.79,1.99,3.48,2.73,5.3c1.1,2.72,1.02,5.64,1.02,8.53c0,4.61-0.02,32.35-0.03,36.97c0,0.5,0.05,1,0.08,1.49
				c0.08,1.52,0.76,2.62,2.21,3.19C74.1,148,61.89,148,49.67,148z"/>
		</g>
	</g>
</g>
</svg>
